<?xml version="1.0" encoding="UTF-8"?>
<svg xmlns="http://www.w3.org/2000/svg" xmlns:xlink="http://www.w3.org/1999/xlink" width="480pt" height="480pt" viewBox="0 0 480 480" version="1.1">
<g id="surface812129">
<path style=" stroke:none;fill-rule:nonzero;fill:rgb(90.588235%,29.803922%,23.529412%);fill-opacity:1;" d="M 332.316406 15 C 331.703125 15.023438 331.226562 15.195312 330.910156 15.5 L 275.183594 81.679688 L 263.816406 120.761719 C 256.09375 120.507812 248.117188 120.410156 239.941406 120.410156 C 182.027344 120.410156 135 126.546875 135 134.148438 C 135 152.300781 344.851562 152.300781 344.851562 134.148438 C 344.851562 128.523438 319.730469 123.773438 283.503906 121.523438 L 292.5 89.355469 L 344.617188 26.660156 L 344.707031 26.570312 C 345.878906 25.355469 343.59375 21.710938 339.871094 18.515625 C 337.082031 16.109375 334.148438 14.929688 332.3125 15 Z M 259.542969 136.140625 L 259.335938 136.757812 C 259.246094 136.832031 259.25 136.929688 259.25 137.019531 C 259.25 138.144531 263.792969 139.070312 269.328125 139.070312 C 274.859375 139.070312 279.433594 138.144531 279.433594 137.019531 L 279.609375 136.316406 C 281.0625 136.84375 281.867188 137.445312 281.867188 138.132812 C 281.867188 139.949219 276.242188 141.433594 269.238281 141.355469 C 262.429688 141.355469 256.789062 139.980469 256.789062 138.164062 C 256.789062 137.382812 257.90625 136.667969 259.542969 136.140625 Z M 343.683594 141.296875 C 315.917969 156.105469 164.246094 156.203125 136.378906 141.503906 L 148.710938 249.992188 C 154.066406 232.695312 167.609375 209.34375 185.039062 202.265625 C 190.753906 199.925781 196.558594 199.9375 202.003906 203.058594 C 206.726562 205.652344 210.722656 211.09375 211.171875 213.253906 C 212.265625 218.878906 209.363281 221.105469 207.101562 221.105469 C 204.371094 221.105469 202.28125 217.144531 200.917969 214.804688 C 197.199219 208.488281 191.566406 208.21875 185.566406 212.371094 C 179.296875 216.691406 173.847656 223.957031 170.039062 230.273438 C 165.402344 237.878906 161.496094 246.261719 159.140625 254.648438 C 157.777344 259.492188 156.527344 267.253906 158.613281 271.847656 C 159.527344 273.75 160.875 274.953125 163.066406 274.953125 C 167.613281 274.953125 174.210938 269.25 177.394531 266.21875 C 181.472656 262.335938 186.734375 256.277344 188.730469 252.390625 L 193.476562 239.003906 C 195.832031 233.125 202.441406 234.160156 202.441406 239.003906 C 202.441406 247.824219 199.105469 250.765625 193.390625 269.003906 C 188.125 285.863281 186.476562 291.328125 186.476562 291.328125 C 185.84375 293.742188 183.386719 297.800781 180.761719 297.800781 C 179.667969 297.800781 178.867188 297.4375 178.417969 296.746094 C 177.503906 295.53125 177.59375 292.199219 177.6875 291.328125 C 177.867188 288.566406 183.390625 272.125 184.308594 269.53125 C 182.492188 271.4375 180.589844 273.355469 178.507812 275.242188 C 173.601562 279.652344 165.714844 285.4375 158.996094 285.4375 C 155.902344 285.4375 153.925781 284.648438 152.023438 283.359375 L 158.90625 352.175781 C 160.722656 356.496094 194.5 366.972656 238.976562 366.972656 C 283.539062 366.972656 317.289062 356.421875 319.015625 352.175781 L 328.917969 270.410156 C 323.742188 274.910156 317.761719 280.453125 311.132812 283.210938 C 306.226562 285.207031 295.34375 286.480469 295.34375 278.261719 C 295.34375 273.761719 303.609375 265.476562 308.410156 259.6875 C 309.683594 258.21875 312.65625 254.589844 312.65625 252.683594 C 312.65625 250.179688 307.226562 250.757812 302.050781 254.824219 C 299.140625 257.164062 296.40625 260.292969 294.140625 263.230469 C 290.242188 268.421875 288.160156 272.902344 286.4375 276.621094 C 280.8125 288.890625 282.71875 284.054688 278.175781 295.632812 C 273.628906 307.140625 274.371094 305.828125 273.457031 307.734375 C 272.648438 309.382812 271.460938 310.777344 269.824219 311.628906 C 268.097656 312.5 265.742188 312.402344 264.289062 311.367188 C 263.476562 310.84375 263.085938 309.71875 263.085938 308.171875 C 263.085938 307.394531 263.199219 306.609375 263.378906 305.828125 C 264.742188 300.550781 270.460938 290.191406 277.003906 276.179688 C 278.457031 272.988281 277.898438 273.933594 277.707031 274.1875 C 272.082031 279.378906 267.804688 281.890625 264.640625 283.273438 C 259.375 285.523438 252.835938 285.515625 251.484375 279.726562 C 251.394531 279.382812 251.398438 279.015625 251.308594 278.671875 C 240.597656 286.621094 229.257812 288.785156 233.175781 271.671875 C 229.003906 278.765625 221.722656 284.5625 212.8125 284.5625 C 209.09375 284.5625 206.371094 283.359375 205.019531 280.167969 C 202.933594 275.410156 206.195312 267.265625 209.179688 259.570312 C 210.726562 255.683594 212.835938 251.011719 215.65625 245.566406 C 217.109375 242.625 219.449219 240.890625 222.539062 241.671875 C 223.078125 241.851562 223.554688 242.03125 224.003906 242.285156 C 226.359375 243.84375 225.453125 246.15625 224.269531 248.496094 C 220.816406 254.976562 217.824219 259.734375 215.832031 266.484375 C 215.019531 269.335938 213.996094 274.277344 217.179688 274.277344 C 219.351562 274.277344 221.4375 273.578125 223.449219 272.199219 C 227.617188 269.257812 230.976562 264.855469 233.527344 260.539062 C 235.339844 257.433594 237.527344 253.367188 238.625 249.902344 C 239.074219 248.433594 239.632812 247.046875 240.265625 245.742188 C 241.269531 243.582031 242.609375 241.347656 244.980469 241.347656 C 246.164062 241.347656 247.144531 241.78125 247.882812 242.636719 C 249.425781 244.542969 249.085938 246.5 248.261719 248.585938 C 246.445312 253.429688 244.003906 257.761719 241.992188 263.027344 C 240.808594 266.058594 239.53125 269.941406 239.53125 273.136719 C 239.53125 276.074219 242.894531 275.375 245.714844 274.160156 C 247.886719 273.214844 250.066406 271.761719 251.894531 270.292969 C 252.988281 266.0625 252.699219 267 275.859375 211.320312 C 277.042969 208.46875 279.222656 207.246094 281.398438 207.246094 C 282.492188 207.246094 283.382812 207.613281 284.296875 208.214844 C 285.84375 209.339844 285.863281 211.730469 285.234375 213.546875 C 284.605469 215.195312 284.671875 214.675781 281.132812 222.628906 C 276.40625 233.082031 273.335938 240.625 269.152344 250.226562 C 267.425781 254.199219 262.167969 266.5625 261.269531 269.503906 C 260.730469 271.40625 260.078125 274.511719 262.179688 274.511719 C 267.082031 274.511719 279.703125 263.179688 283.15625 259.804688 C 283.335938 259.550781 283.613281 259.457031 283.976562 259.277344 C 284.515625 257.628906 285.046875 256.089844 285.5 254.53125 C 286.773438 251.246094 287.960938 247.417969 290.332031 244.746094 C 291.050781 243.875 291.863281 243.371094 292.765625 243.371094 C 295.296875 243.371094 296.574219 244.394531 296.574219 246.828125 C 296.574219 247.769531 295.953125 251.242188 295.578125 252.1875 C 296.851562 250.898438 298.195312 249.609375 299.648438 248.320312 C 313.269531 236.304688 322.96875 242.4375 322.96875 248.496094 C 322.96875 254.886719 314.898438 263.777344 310.460938 268.710938 C 309.003906 270.359375 306.007812 273.378906 305.917969 274.25 C 305.917969 275.375 306.726562 275.832031 307.910156 275.832031 C 309.726562 275.832031 313.722656 272.792969 315.175781 271.757812 C 319.722656 268.382812 325.871094 263.199219 330.234375 259.570312 Z M 163.945312 360.46875 L 177.480469 382.441406 L 182.753906 451.085938 C 182.753906 458.777344 208.4375 465 240.027344 465 C 271.621094 465 297.304688 458.777344 297.304688 451.085938 L 301.492188 381.738281 L 314.265625 360.46875 C 278.3125 374.914062 201.355469 375.421875 163.945312 360.46875 Z M 163.945312 360.46875 "/>
</g>
</svg>
